Coordinates
version=1
nRows=29
nColumns=24
inDegrees=yes

Units are S.I. units (second, meters, Newtons, ...)
Angles are in degrees.

endheader
time	pelvis_tilt	pelvis_list	pelvis_rotation	pelvis_tx	pelvis_ty	pelvis_tz	hip_flexion_r	hip_adduction_r	hip_rotation_r	knee_angle_r	ankle_angle_r	subtalar_angle_r	mtp_angle_r	hip_flexion_l	hip_adduction_l	hip_rotation_l	knee_angle_l	ankle_angle_l	subtalar_angle_l	mtp_angle_l	lumbar_extension	lumbar_bending	lumbar_rotation
      1.17583333	      7.27127488	      0.93076423	     -3.31095732	      0.10410064	      1.02866288	      0.30269528	      7.61286221	     -5.74940715	     -7.34995271	    -62.01278039	      2.99370689	     -8.88951221	      4.44975321	      4.30288618	      2.52855842	     -4.46540706	    -14.60952989	     -1.14709752	    -21.56309974	     -7.01914647	    -19.44894068	     -2.68246208	      1.60719528
      1.18000000	      7.27404355	      0.78952484	     -3.26230347	      0.10907350	      1.02955306	      0.30232070	      8.12879038	     -5.54187339	     -7.51679368	    -61.56945684	      3.28495484	     -8.98734643	      4.38735009	      3.87546542	      2.43327657	     -4.37310708	    -14.41010684	     -1.01054146	    -21.59219873	     -7.04257645	    -19.49836563	     -2.45671325	      1.55952573
      1.18416667	      7.36347541	      0.58345082	     -3.09243227	      0.11409776	      1.03064757	      0.30171117	      8.46034699	     -5.29322636	     -7.84349363	    -60.94931825	      3.41543367	     -9.12683995	      4.18545044	      3.34833342	      2.28334092	     -4.14716500	    -14.20479558	     -0.81711382	    -21.54251237	     -7.11967078	    -19.64327784	     -2.14022372	      1.38261070
      1.18833333	      7.38150905	      0.39479560	     -3.00123242	      0.11907999	      1.03158416	      0.30129429	      8.88861787	     -5.03790922	     -8.08401237	    -60.30140479	      3.56591143	     -9.24734317	      4.03521204	      2.89178608	      2.13696543	     -3.98913799	    -13.98266033	     -0.68418284	    -21.56580711	     -7.18033645	    -19.71899767	     -1.87074167	      1.29529310
      1.19250000	      7.40123568	      0.21623007	     -2.90450832	      0.12408066	      1.03249662	      0.30084272	      9.29057274	     -4.80414170	     -8.35338537	    -59.58107517	      3.71627503	     -9.39432539	      3.89827168	      2.43043788	      2.00115758	     -3.84621900	    -13.75275921	     -0.54227931	    -21.57634345	     -7.23667418	    -19.78347944	     -1.59794575	      1.19677905
      1.19666667	      7.44818400	      0.03355904	     -2.79284186	      0.12906626	      1.03343022	      0.30038118	      9.63487585	     -4.56902352	     -8.65055143	    -58.78057543	      3.83724432	     -9.56737922	      3.74289123	      1.93332795	      1.86239563	     -3.66987222	    -13.50684964	     -0.40029419	    -21.57545928	     -7.30133397	    -19.89427531	     -1.31989251	      1.07536768
      1.20083333	      7.52982551	     -0.14456755	     -2.66317640	      0.13406664	      1.03440078	      0.29989567	      9.90711133	     -4.34794091	     -8.98280630	    -57.90138437	      4.00643816	     -9.73550055	      3.50499025	      1.39162105	      1.72837017	     -3.48327074	    -13.24171559	     -0.27593636	    -21.58081165	     -7.40452626	    -20.03478794	     -1.04700245	      0.90260467
      1.20500000	      7.52389034	     -0.32420903	     -2.57506423	      0.13909478	      1.03520313	      0.29948475	     10.26927170	     -4.11406067	     -9.28252435	    -56.96713397	      4.05503600	     -9.92133772	      3.37213140	      0.94473330	      1.58320500	     -3.35472401	    -12.98400342	     -0.14724328	    -21.61787571	     -7.46155071	    -20.05987086	     -0.76752050	      0.84482047
      1.20916667	      7.56607131	     -0.51203240	     -2.45482172	      0.14412111	      1.03606506	      0.29903776	     10.53756000	     -3.87757333	     -9.62495254	    -55.94504851	      4.13215480	    -10.10558760	      3.22283438	      0.44152056	      1.43009954	     -3.18971895	    -12.71384880	     -0.01317025	    -21.62529732	     -7.52522430	    -20.14887853	     -0.48248186	      0.71474134
      1.21333333	      7.65593907	     -0.68957634	     -2.31435176	      0.14913804	      1.03696440	      0.29856033	     10.72231736	     -3.66051862	     -9.99842840	    -54.85446337	      4.26611387	    -10.28611848	      3.01720630	     -0.11707144	      1.28917392	     -2.99953538	    -12.42625238	      0.09837133	    -21.63020186	     -7.61428230	    -20.30069707	     -0.21253433	      0.53616685
      1.21750000	      7.67110681	     -0.86106725	     -2.21115882	      0.15416320	      1.03770246	      0.29816370	     10.98358838	     -3.43723918	    -10.33465571	    -53.71719741	      4.30145280	    -10.46057145	      2.86549347	     -0.59452129	      1.14829866	     -2.84831916	    -12.14405116	      0.21934420	    -21.67835770	     -7.67886070	    -20.35267092	      0.05069809	      0.44169935
      1.22166667	      7.75430227	     -1.03765686	     -2.06528454	      0.15921474	      1.03852567	      0.29769418	     11.12226088	     -3.22268348	    -10.73145588	    -52.49800818	      4.42963360	    -10.61886756	      2.65703103	     -1.14887177	      1.00166845	     -2.67706603	    -11.84781282	      0.32322728	    -21.69551867	     -7.76785350	    -20.48344249	      0.33596294	      0.25812103
      1.22583333	      7.75774869	     -1.20096579	     -1.95704710	      0.16425637	      1.03917361	      0.29732262	     11.34427563	     -3.00408008	    -11.08026095	    -51.23542050	      4.45844779	    -10.78113231	      2.50389303	     -1.61245193	      0.86315748	     -2.53109580	    -11.56356416	      0.44320568	    -21.74336562	     -7.83133213	    -20.52023642	      0.58792128	      0.15469448
      1.23000000	      7.81722579	     -1.36405708	     -1.82993765	      0.16931509	      1.03987105	      0.29692363	     11.46892019	     -2.79442920	    -11.46266292	    -49.90383244	      4.53503253	    -10.91357853	      2.33592234	     -2.14313204	      0.72368727	     -2.37997586	    -11.26222823	      0.55434212	    -21.77534828	     -7.89898106	    -20.61897932	      0.85034053	      0.00350209
      1.23416667	      7.89848983	     -1.51177401	     -1.69481514	      0.17436197	      1.04054703	      0.29652585	     11.54553185	     -2.60097220	    -11.85290888	    -48.52335089	      4.67698574	    -11.02615857	      2.11807946	     -2.69445111	      0.59809057	     -2.23430379	    -10.95771594	      0.64336968	    -21.81163177	     -7.98575979	    -20.74242540	      1.09654896	     -0.17752549
      1.23833333	      7.87832291	     -1.64694584	     -1.59481472	      0.17943850	      1.04102003	      0.29621867	     11.72465175	     -2.40499479	    -12.20474130	    -47.10172121	      4.70625621	    -11.15233573	      1.96748834	     -3.13085763	      0.47992370	     -2.12315616	    -10.67322080	      0.76205583	    -21.86566396	     -8.04350623	    -20.74125261	      1.32119542	     -0.26881005
      1.24250000	      7.91717046	     -1.78021337	     -1.47882571	      0.18448435	      1.04154140	      0.29593170	     11.80728266	     -2.20531111	    -12.56022289	    -45.61477959	      4.79613219	    -11.23204788	      1.79648201	     -3.63394148	      0.36009324	     -1.98427255	    -10.37540224	      0.86852649	    -21.89097531	     -8.10694653	    -20.82230992	      1.53201487	     -0.42176012
      1.24666667	      7.93504582	     -1.89517307	     -1.37498143	      0.18954751	      1.04197514	      0.29567182	     11.89468712	     -2.02079999	    -12.90522093	    -44.08726951	      4.87361998	    -11.30918024	      1.63011488	     -4.11102856	      0.25785744	     -1.87530510	    -10.08343800	      0.97428521	    -21.93156248	     -8.16742522	    -20.86566957	      1.72768642	     -0.55088928
      1.25083333	      7.92312237	     -2.00075317	     -1.28167987	      0.19462231	      1.04231047	      0.29547221	     11.99704333	     -1.83811996	    -13.23903775	    -42.52034441	      4.94950488	    -11.36482722	      1.47402120	     -4.55451506	      0.15986320	     -1.78448900	     -9.79513446	      1.08399125	    -21.96236370	     -8.22211671	    -20.88202540	      1.90101813	     -0.67379719
      1.25500000	      7.94206790	     -2.08797661	     -1.18827892	      0.19968335	      1.04263781	      0.29529090	     12.04099817	     -1.66801862	    -13.55626428	    -40.90562467	      5.08027196	    -11.38587546	      1.27263753	     -5.02920198	      0.07982455	     -1.69714172	     -9.50919793	      1.17771323	    -21.99170385	     -8.29205675	    -20.92490061	      2.06044239	     -0.82360700
      1.25916667	      7.89355705	     -2.16121308	     -1.11769124	      0.20474067	      1.04280855	      0.29519532	     12.14880126	     -1.49710592	    -13.83789232	    -39.25422580	      5.10453878	    -11.41841430	      1.12085494	     -5.42469926	      0.01015247	     -1.62225299	     -9.23920066	      1.30065818	    -22.01211204	     -8.34269123	    -20.89450173	      2.18517423	     -0.90180515
      1.26333333	      7.74018912	     -2.18453048	     -1.13822281	      0.20980781	      1.04272453	      0.29532162	     12.38829272	     -1.35154230	    -14.00288130	    -37.63192283	      5.24290915	    -11.34322886	      1.06463213	     -5.70797636	     -0.00759939	     -1.65248547	     -8.97675401	      1.37604125	    -22.06490212	     -8.36209540	    -20.74482755	      2.22156947	     -0.95216920
      1.26750000	      7.85054722	     -2.27298987	     -1.00876900	      0.21488751	      1.04307318	      0.29513830	     12.23606998	     -1.16816658	    -14.34104653	    -35.82776601	      5.24517781	    -11.34636124	      0.84914974	     -6.28252183	     -0.09954982	     -1.55133551	     -8.68957509	      1.53288987	    -22.00509956	     -8.43024680	    -20.89093681	      2.39111781	     -1.13355495
      1.27166667	      7.76005957	     -2.29887926	     -0.96660413	      0.21993435	      1.04301001	      0.29518203	     12.33700843	     -1.01881938	    -14.55189205	    -34.07210402	      5.23971233	    -11.34226150	      0.71323562	     -6.62236798	     -0.12656093	     -1.50776181	     -8.44225009	      1.65777678	    -22.00827609	     -8.47291983	    -20.81259612	      2.44948066	     -1.16837663
      1.27583333	      7.71617731	     -2.32079515	     -0.94364694	      0.22502496	      1.04297553	      0.29528006	     12.35935081	     -0.86581380	    -14.73762197	    -32.27306583	      5.27469156	    -11.23266128	      0.50621468	     -7.02423810	     -0.15141003	     -1.51936780	     -8.18132812	      1.79503299	    -21.97198125	     -8.53910127	    -20.78396674	      2.49905429	     -1.28509489
      1.28000000	      7.56804558	     -2.30832593	     -0.92747872	      0.23009665	      1.04271582	      0.29543906	     12.49339217	     -0.73680408	    -14.88735707	    -30.47074735	      5.25193066	    -11.20001112	      0.39362957	     -7.29557362	     -0.14380389	     -1.51218772	     -7.95215894	      1.92553272	    -21.94719338	     -8.57436912	    -20.63391694	      2.50481437	     -1.30221085
      1.28416667	      7.47936279	     -2.30004659	     -0.92501453	      0.23517419	      1.04249657	      0.29564546	     12.53573864	     -0.59298426	    -15.00640427	    -28.62194330	      5.22484138	    -11.10821508	      0.27876106	     -7.63762422	     -0.14281754	     -1.54838839	     -7.71578815	      2.06863718	    -21.87219518	     -8.61029369	    -20.55080759	      2.50698635	     -1.35516462
      1.28833333	      7.37591709	     -2.27422945	     -0.93755511	      0.24023172	      1.04219364	      0.29591197	     12.58320872	     -0.45688449	    -15.08054098	    -26.75719103	      5.17759664	    -10.99522120	      0.17122600	     -7.95820253	     -0.12413846	     -1.59087054	     -7.49206451	      2.21907975	    -21.79273927	     -8.64417085	    -20.45966798	      2.48101378	     -1.39071854
      1.29250000	      7.22994036	     -2.22550234	     -0.96548569	      0.24531216	      1.04177268	      0.29622840	     12.66674085	     -0.33789861	    -15.12146353	    -24.88706702	      5.10397816	    -10.87530131	      0.07086427	     -8.22907907	     -0.08231202	     -1.65278965	     -7.28116727	      2.38670381	    -21.70683958	     -8.67641802	    -20.31357546	      2.42316494	     -1.42373879
